# xmcd
#
# Track frame offsets: 
#        150
#        18602
#        34644
#        49204
#        68237
#        86832
#        106197
#        126468
#        144660
#        165847
#        184720
#
# Disc length: 2949 seconds
#
# Revision: 0
# Processed by: cddbd v1.5.2PL0 Copyright (c) Steve Scherf et al.
# Submitted via: ExactAudioCopyFreeDBPlugin 1.0
#
DISCID=940b830b
DTITLE=Blake Berglund - Coyote
DYEAR=2112
DGENRE=Country
TTITLE0=Come Back Around
TTITLE1=Hangin' By A Thread
TTITLE2=Get Off The Table, Mabel (The Money's For The Beer)
TTITLE3=Love's Never Made A Man A Living
TTITLE4=Where I've Been
TTITLE5=Love Is Like A Rodeo [with Tim Hus]
TTITLE6=Halo And Horns [with Jess Moskaluke]
TTITLE7=I Think About Savanna
TTITLE8=Where Have All My Horses Gone
TTITLE9=High Water Or Hell
TTITLE10=Oceanman
EXTD=
EXTT0=
EXTT1=
EXTT2=
EXTT3=
EXTT4=
EXTT5=
EXTT6=
EXTT7=
EXTT8=
EXTT9=
EXTT10=
PLAYORDER=
